<?xml version="1.0" encoding="UTF-8"?>
<svg id="Layer_1" xmlns="http://www.w3.org/2000/svg" version="1.1" viewBox="0 0 1536 1024">
  <!-- Generator: Adobe Illustrator 29.8.3, SVG Export Plug-In . SVG Version: 2.1.1 Build 3)  -->
  <defs>
    <style>
      .st0 {
        fill: #f27b2a;
      }

      .st1 {
        stroke: #fff;
        stroke-width: 7px;
      }

      .st1, .st2 {
        stroke-miterlimit: 10;
      }

      .st1, .st3 {
        fill: #121d3b;
      }

      .st4 {
        fill: #1c2b48;
      }

      .st5 {
        fill: #f89020;
      }

      .st6 {
        fill: #f37c2a;
      }

      .st7 {
        fill: #5671b4;
      }

      .st8 {
        fill: #1d2c48;
      }

      .st9 {
        fill: #8f70ac;
      }

      .st10 {
        fill: #23314e;
      }

      .st11 {
        fill: #202f4c;
      }

      .st2 {
        fill: none;
        stroke: #243048;
        stroke-width: 10px;
      }

      .st12 {
        fill: #f37928;
      }

      .st13 {
        fill: #f06628;
      }

      .st14 {
        fill: #1f2d4a;
      }

      .st15 {
        fill: #e15150;
      }

      .st16 {
        fill: #f68b53;
      }

      .st17 {
        fill: #f2eff0;
      }

      .st18 {
        fill: #1d2c49;
      }

      .st19 {
        fill: #d686b2;
      }

      .st20 {
        fill: #1e2c49;
      }
    </style>
  </defs>
  <rect class="st2" x="547.98" y="493.19" width="129.73" height="105.94" rx="12" ry="12"/>
  <g>
    <path class="st18" d="M178.2,440.41c31.88,4,50.81,39.28,29.73,66.01l-12.41,9.82c36.19,9.52,36.39,60.64,3.29,75.04-2.87,1.25-18.42,5.77-20.61,5.77h-83.26v-156.63c26.13,2.38,57.81-3.19,83.26,0ZM122.96,465.14v38.75l2.47,2.47h39.57c2.95,0,13.98-4.2,16.52-6.56,6.99-6.5,7.84-19.48,2.19-26.99-1.66-2.21-10.05-7.66-12.12-7.66h-48.64ZM122.96,572.31h48.64c.54,0,9.02-2.43,10.25-2.94,16.96-7.03,16.7-31.54-.28-38.37-1.34-.54-11.02-3.21-11.63-3.21h-46.99v44.52Z"/>
    <path class="st6" d="M1036.36,597.04l70.01-156.75,28.69.35,67.82,156.41h-31.33l-14.67-35.25-75.79-.8-15.89,36.05h-28.85ZM1092.42,536.03h54.41l-28.84-62.66-25.57,62.66Z"/>
    <path class="st12" d="M1389.19,583.85v57.71h-29.68v-154.16l2.47-2.47h25.56c.33,4.47-1.65,9.98,2.47,13.16,26.9-29.49,74.24-16.17,86.84,20.36,19.93,57.75-39.96,107.69-87.67,65.41ZM1415.19,506.77c-40.31,4.94-36.67,73.31,9.27,68.65,39.8-4.04,35.78-74.17-9.27-68.65Z"/>
    <path class="st4" d="M805.54,437.11v157.45l-2.47,2.47h-25.56l-.02-14.84c-27.87,30.03-75.07,18.5-88.62-19.36-20.56-57.45,39.85-108.25,86.97-64.73,4.6-20-.44-40.74.02-61h29.68ZM737.51,506.76c-35.81,6.1-32.4,76.79,15.7,68.45,36.01-6.25,33.65-76.85-15.7-68.45Z"/>
    <path class="st0" d="M1247.4,583.85v57.71h-28.03v-156.63h25.56c4.32,3.52,1.99,9.87,2.49,14.84,36.37-39.89,91.93-8.3,92.44,42.02.5,49.33-56.38,76.76-92.46,42.07ZM1275.11,506.78c-42.3,3.73-37.94,74.96,9.25,68.67,38.03-5.07,34.16-72.5-9.25-68.67Z"/>
    <path class="st14" d="M312.57,529.44c-.42-32.82-38.36-27.2-58.42-14.74l-10.79-17.29c21.14-18.67,66.37-22.25,86.58-1,18.27,19.2,8.5,73.76,9.94,99.08l-24.61,1.31-2.48-2.47-1.04-8.83c-29.55,35.31-98.8.34-68.42-42.04,4.29-5.98,16.74-14.02,23.9-14.02h45.34ZM314.18,547.66c-13.47-2.78-46.22-5.68-49.99,11.85-5.13,23.83,36.93,24.73,46.01,6.3,2.8-5.69,2.91-12.07,3.98-18.16Z"/>
    <path class="st20" d="M937.44,550.87h-84.09c4.57,20.01,22.73,27.56,41.94,24.62,9.03-1.38,14.96-8.87,23.06-11.55,9.13,13.86,21.15,14.25,1.48,26.2-50.22,30.5-111.26-14.12-90.84-71.05,14.65-40.85,70.92-51.01,97.59-15.89,3.42,4.5,10.86,18.72,10.86,23.76v23.91ZM911.06,532.74c-.88-39.12-55.55-38.2-59.35,0h59.35Z"/>
    <path class="st8" d="M531.66,516.05l-3.63-.06c-23.26-20.49-58.71-4.41-57.09,27.23,1.47,28.59,36.4,43.07,56.81,22.5h2.44c-2.52,6.37,9.84,16.32,9.97,17.35.72,5.81-12.92,11.86-17.83,13.51-30.99,10.43-68.82-4.32-77.09-37.42-15.84-63.36,51.06-100.16,99.8-61.82l-13.38,18.71Z"/>
    <path class="st11" d="M395,597.04h-28.03v-112.11h28.03l.02,16.48,10.97-11.26c4.96-3.49,20.28-10.18,25.87-8.35,4.87,1.59,2.56,21.35,2,26.32-15.93,3.01-29.67,2.33-35.93,20.13-.59,1.68-2.92,10.97-2.92,11.91v56.88Z"/>
    <path class="st10" d="M1026.47,481.63v28.03c-53.49-5.52-36.88,53.62-39.57,87.38h-28.03v-112.11h28.03c.15,4.1-.22,8.29,0,12.4.1,1.86-1.08,4.52,1.63,4.08,6.24-14.49,23.53-19.05,37.94-19.77Z"/>
    <path class="st17" d="M911.06,532.74h-59.35"/>
  </g>
  <g>
    <path class="st1" d="M654.9,550.98c19.1-1.24,33.67,17.24,25.97,35.38-.55,1.3-3.55,5.45-3.52,5.79.12,1.68,3.37,1.31,4.41,1.9l13.4,13.56c1.89,3.61-3.84,8.5-7.86,5.72-1.32-.91-12.62-12.36-12.86-13.25-.34-1.23.46-2.33-1.75-3.37-11.64,7.65-27.19,6.71-36.32-4.34-13.51-16.35-2.21-40.04,18.53-41.39ZM655.76,556.54c-30.13,1.94-22.34,46.78,6.69,38.79,23.21-6.39,16.7-40.3-6.69-38.79Z"/>
    <path class="st3" d="M654.34,550.79c19.1-1.24,33.67,17.24,25.97,35.38-.55,1.3-3.55,5.45-3.52,5.79.12,1.68,3.37,1.31,4.41,1.9l13.4,13.56c1.89,3.61-3.84,8.5-7.86,5.72-1.32-.91-12.62-12.36-12.86-13.25-.34-1.23.46-2.33-1.75-3.37-11.64,7.65-27.19,6.71-36.32-4.34-13.51-16.35-2.21-40.04,18.53-41.39ZM655.19,556.35c-30.13,1.94-22.34,46.78,6.69,38.79,23.21-6.39,16.7-40.3-6.69-38.79Z"/>
    <g>
      <path class="st5" d="M569.82,520.89v51.35h-9.41l-.03-51.11c3.01-1.15,6.33-.69,9.44-.25Z"/>
      <path class="st13" d="M585.23,520.47v51.78c-2.9-.65-6.56,1.26-8.99-.21v-50.93l.64-.64h8.34Z"/>
      <polygon class="st15" points="615.61 520.47 615.61 572.25 606.63 572.25 606.63 521.11 607.27 520.47 615.61 520.47"/>
      <polygon class="st16" points="600.64 572.25 591.65 572.25 591.65 520.47 599.99 520.47 600.64 521.11 600.64 572.25"/>
      <path class="st19" d="M622.03,520.47l9.42.43c-.2,8.33.26,16.72.02,25.06-.07,2.54-.09,10.54-.55,12.29-.27,1.02-2.53,4.07-3.22,5.77-1.01,2.5-1.67,5.16-2,7.84l-3.66.4v-51.78Z"/>
      <polygon class="st9" points="637.44 552.56 637.44 521.11 638.08 520.47 646.21 520.47 646.85 521.11 646.85 547.64 637.44 552.56"/>
      <path class="st7" d="M662.26,547c-.46.16-.94-.43-1.07-.43h-7.7l-.64-.64v-24.82l.64-.64h8.13l.64.64v25.89Z"/>
    </g>
  </g>
</svg>